<?xml version="1.0" encoding="utf-8"?>
<!-- Generator: Adobe Illustrator 14.0.0, SVG Export Plug-In . SVG Version: 6.00 Build 43363)  -->
<!DOCTYPE svg PUBLIC "-//W3C//DTD SVG 1.1//EN" "http://www.w3.org/Graphics/SVG/1.1/DTD/svg11.dtd">
<svg version="1.1" id="Layer_1" xmlns="http://www.w3.org/2000/svg" xmlns:xlink="http://www.w3.org/1999/xlink" x="0px" y="0px"
	 width="256px" height="256px" viewBox="0 0 256 256" enable-background="new 0 0 256 256" xml:space="preserve">
<linearGradient id="SVGID_1_" gradientUnits="userSpaceOnUse" x1="264.5723" y1="-180.0854" x2="316.09" y2="112.0861" gradientTransform="matrix(1 0 0 -1 -162 94)">
	<stop  offset="0" style="stop-color:#4CA6CF"/>
	<stop  offset="0.1697" style="stop-color:#3F97BF"/>
	<stop  offset="0.445" style="stop-color:#2E84AB"/>
	<stop  offset="0.7217" style="stop-color:#24799F"/>
	<stop  offset="1" style="stop-color:#21759B"/>
</linearGradient>
<rect fill="url(#SVGID_1_)" width="256.661" height="256"/>
<g>
	<path d="M197.097,80.045c-15.709-4.202-80.171-4.586-80.171-4.586s-64.462,0.384-80.17,4.586
		c-8.668,2.307-13.697,9.644-16.034,18.312c-4.201,15.708-4.378,48.103-4.378,48.103s0.177,32.395,4.378,48.104
		c2.308,8.666,7.366,16.004,16.034,18.311c15.708,4.203,80.17,4.586,80.17,4.586s64.462-0.383,80.171-4.586
		c8.669-2.307,13.728-9.645,16.035-18.311c4.2-15.709,4.378-48.104,4.378-48.104s-0.178-32.394-4.378-48.103
		C210.824,89.688,205.766,82.352,197.097,80.045z M96.218,176.043v-59.167l53.25,29.583L96.218,176.043z"/>
	<path d="M245.608,94.319l-2.715-5.405l2.91-5.287c0.456-0.83,0.402-1.845-0.136-2.615c-0.542-0.767-1.468-1.163-2.396-1.011
		l-5.982,0.89l-4.123-4.389c-0.644-0.695-1.625-0.958-2.529-0.682c-0.903,0.267-1.57,1.033-1.726,1.964l-0.003-0.006l-0.971,5.954
		l-5.463,2.583c-0.861,0.396-1.418,1.251-1.419,2.199c-0.018,0.519,0.139,1.024,0.436,1.451c0.23,0.329,0.531,0.6,0.876,0.801
		l5.373,2.772l0.76,6.011c0.114,0.932,0.755,1.715,1.648,2.009c0.894,0.308,1.883,0.084,2.553-0.575l4.308-4.239l5.924,1.14
		l0.009-0.007c0.925,0.169,1.868-0.199,2.436-0.949c0.566-0.761,0.657-1.763,0.234-2.605L245.608,94.319z"/>
	<path d="M219.504,61.322l-3.527-3.253l0.677-4.717c0.066-0.912-0.359-1.792-1.118-2.312c-0.753-0.516-1.728-0.593-2.554-0.201
		l-0.005-0.003l-4.146,2.343l-4.309-2.11c-0.852-0.418-1.862-0.317-2.612,0.261c-0.743,0.583-1.099,1.54-0.903,2.467l0.935,4.68
		l-3.308,3.458c-0.651,0.677-0.863,1.662-0.543,2.548c0.317,0.877,1.106,1.503,2.035,1.613l4.748,0.55l2.232,4.227
		c0.433,0.837,1.307,1.357,2.249,1.335c0.942-0.023,1.786-0.591,2.175-1.447l2.013-4.352l4.7-0.825l-0.015-0.002
		c0.938-0.153,1.705-0.828,1.979-1.731c0.268-0.907-0.01-1.89-0.707-2.532L219.504,61.322z"/>
	<path d="M165.857,56.052l-0.61,4.12c-0.143,0.922,0.252,1.854,1.014,2.402c0.434,0.289,0.941,0.44,1.467,0.437
		c0.407-0.008,0.802-0.115,1.153-0.314l3.646-2.006l3.724,1.855c0.837,0.431,1.853,0.345,2.605-0.221
		c0.752-0.565,1.116-1.518,0.928-2.441l-0.775-4.091l2.934-2.975l-0.001-0.005c0.66-0.681,0.879-1.669,0.571-2.558
		c-0.316-0.894-1.107-1.532-2.042-1.649l-4.143-0.513l-1.902-3.692c-0.476-0.78-1.334-1.249-2.253-1.23
		c-0.913,0.018-1.752,0.521-2.195,1.32l-1.757,3.767l-4.119,0.679c-0.931,0.155-1.695,0.824-1.968,1.731
		c-0.273,0.899-0.014,1.878,0.673,2.532L165.857,56.052z"/>
</g>
<g>
	<path fill="#FFFFFF" d="M195.097,78.045c-15.709-4.202-80.171-4.586-80.171-4.586s-64.462,0.384-80.17,4.586
		c-8.668,2.307-13.697,9.644-16.034,18.312c-4.201,15.708-4.378,48.103-4.378,48.103s0.177,32.395,4.378,48.104
		c2.308,8.666,7.366,16.004,16.034,18.311c15.708,4.203,80.17,4.586,80.17,4.586s64.462-0.383,80.171-4.586
		c8.669-2.307,13.728-9.645,16.035-18.311c4.2-15.709,4.378-48.104,4.378-48.104s-0.178-32.394-4.378-48.103
		C208.824,87.688,203.766,80.352,195.097,78.045z M94.218,174.043v-59.167l53.25,29.583L94.218,174.043z"/>
	<path fill="#FFFFFF" d="M243.608,92.319l-2.715-5.405l2.91-5.287c0.456-0.83,0.402-1.845-0.136-2.615
		c-0.542-0.767-1.468-1.163-2.396-1.011l-5.982,0.89l-4.123-4.389c-0.644-0.695-1.625-0.958-2.529-0.682
		c-0.903,0.267-1.57,1.033-1.726,1.964l-0.003-0.006l-0.971,5.954l-5.463,2.583c-0.861,0.396-1.418,1.251-1.419,2.199
		c-0.018,0.519,0.139,1.024,0.436,1.451c0.23,0.329,0.531,0.6,0.876,0.801l5.373,2.772l0.76,6.011
		c0.114,0.932,0.755,1.715,1.648,2.009c0.894,0.308,1.883,0.084,2.553-0.575l4.308-4.239l5.924,1.14l0.009-0.007
		c0.925,0.169,1.868-0.199,2.436-0.949c0.566-0.761,0.657-1.763,0.234-2.605L243.608,92.319z"/>
	<path fill="#FFFFFF" d="M217.504,59.322l-3.527-3.253l0.677-4.717c0.066-0.912-0.359-1.792-1.118-2.312
		c-0.753-0.516-1.728-0.593-2.554-0.201l-0.005-0.003l-4.146,2.343l-4.309-2.11c-0.852-0.418-1.862-0.317-2.612,0.261
		c-0.743,0.583-1.099,1.54-0.903,2.467l0.935,4.68l-3.308,3.458c-0.651,0.677-0.863,1.662-0.543,2.548
		c0.317,0.877,1.106,1.503,2.035,1.613l4.748,0.55l2.232,4.227c0.433,0.837,1.307,1.357,2.249,1.335
		c0.942-0.023,1.786-0.591,2.175-1.447l2.013-4.352l4.7-0.825l-0.015-0.002c0.938-0.153,1.705-0.828,1.979-1.731
		c0.268-0.907-0.01-1.89-0.707-2.532L217.504,59.322z"/>
	<path fill="#FFFFFF" d="M163.857,54.052l-0.61,4.12c-0.143,0.922,0.252,1.854,1.014,2.402c0.434,0.289,0.941,0.44,1.467,0.437
		c0.407-0.008,0.802-0.115,1.153-0.314l3.646-2.006l3.724,1.855c0.837,0.431,1.853,0.345,2.605-0.221
		c0.752-0.565,1.116-1.518,0.928-2.441l-0.775-4.091l2.934-2.975l-0.001-0.005c0.66-0.681,0.879-1.669,0.571-2.558
		c-0.316-0.894-1.107-1.532-2.042-1.649l-4.143-0.513l-1.902-3.692c-0.476-0.78-1.334-1.249-2.253-1.23
		c-0.913,0.018-1.752,0.521-2.195,1.32l-1.757,3.767l-4.119,0.679c-0.931,0.155-1.695,0.824-1.968,1.731
		c-0.273,0.899-0.014,1.878,0.673,2.532L163.857,54.052z"/>
</g>
</svg>
