<svg xmlns="http://www.w3.org/2000/svg"
     width="94"
     height="67"
     xml:space="preserve">
    <path fill="red"
          d="M15.113 3.169C8.148 3.716 2.883 9.38 2.543 16.36 2.262 22.114 2 28.731 2 33.301c0 4.621.27 11.341.551 17.138.336 6.891 5.484 12.52 12.355 13.151C22.511 64.293 33.515 65 47 65c13.449 0 24.434-.703 32.035-1.402 6.898-.637 12.055-6.301 12.387-13.219.293-6.106.578-13.086.578-17.078 0-3.949-.281-10.824-.57-16.883-.332-7.008-5.61-12.707-12.602-13.254C71.34 2.574 60.543 2 47 2c-13.578 0-24.396.578-31.887 1.169zM38 19.942l23.199 13.359L38 46.656V19.942z" />
    <path fill="#FFF"
          d="m38 19.942 23.199 13.359L38 46.656z" />
</svg>